<svg xmlns="http://www.w3.org/2000/svg" viewBox="0 0 435 450" width="300" height="310">
	<style>
		tspan { white-space:pre }
		.shp0 { fill: #231f20 } 
	</style>
	<path id="Path 0" class="shp0" d="M70.47 55.44C70.21 56.23 70.14 76.14 70.33 99.69C70.61 136.02 70.91 143.37 72.33 148.25C73.25 151.41 75.42 156.81 77.16 160.25C78.89 163.69 82.61 168.78 85.41 171.57C88.4 174.55 93.6 178.17 98 180.35C102.57 182.62 108.63 184.63 113.5 185.5C117.9 186.29 125.1 186.94 129.5 186.95C133.9 186.96 140.65 186.29 144.5 185.47C148.35 184.65 154.43 182.59 158 180.88C161.81 179.07 166.9 175.45 170.29 172.15C173.52 169 177.6 163.62 179.51 160C181.39 156.43 183.61 150.35 184.45 146.5C185.67 140.86 185.97 131.17 185.98 96.75L186 54L151.5 53.99C150.34 86.94 150 105.72 150.01 117C150.02 136.87 149.95 137.65 147.53 142.5C146.16 145.25 143.56 148.49 141.77 149.7C139.97 150.91 136.25 152.38 133.5 152.98C129.77 153.78 126.97 153.75 122.5 152.84C117.67 151.85 115.71 150.82 112.45 147.56C109.68 144.79 108.01 141.99 107.2 138.75C106.37 135.46 106 121.73 106 94L106 54C74.11 54 70.86 54.26 70.47 55.44ZM302.52 92.65C302.05 93.03 301.74 104.28 301.83 117.67L302 142C339.2 142 350.68 142.22 351.5 142.5C352.81 142.94 352.97 139.82 352.75 117.75L352.5 92.5C314.42 92.09 302.98 92.27 302.52 92.65ZM116.25 265.12C113.36 265.6 108.41 266.91 105.25 268.03C102.09 269.15 97.47 271.36 95 272.94C92.53 274.52 88.81 277.66 86.75 279.91C84.69 282.16 81.76 286.36 80.25 289.25C77.78 293.96 77.5 295.52 77.51 304.5C77.52 313.05 77.88 315.22 79.96 319.5C81.3 322.25 85.12 327.21 88.45 330.53C91.96 334.03 97.44 338.1 101.5 340.22C105.74 342.44 114.61 345.51 124 348.01C132.53 350.28 140.85 352.92 142.5 353.88C144.15 354.83 145.95 356.8 146.5 358.25C147.21 360.13 147.14 361.62 146.25 363.44C145.54 364.89 142.94 366.97 140.25 368.22C136.39 370.03 133.81 370.44 126.5 370.38C119.75 370.32 116.12 369.76 112 368.14C108.97 366.95 104.3 364.29 101.6 362.24C98.91 360.18 96.15 358.05 95.47 357.5C94.57 356.78 91.31 358.85 83.67 365C77.87 369.68 73.09 374.06 73.06 374.75C73.03 375.44 75.59 378.72 78.75 382.04C82.26 385.73 87.03 389.39 91 391.44C94.58 393.29 100.65 395.8 104.5 397.02C109.77 398.69 114.83 399.36 125 399.71C135.07 400.07 140.41 399.78 146 398.59C150.13 397.71 156.76 395.42 160.75 393.5C164.74 391.57 170.14 388.03 172.75 385.62C175.36 383.21 178.83 378.82 180.46 375.87C183.02 371.24 183.49 369.19 183.86 361C184.24 352.53 184.02 350.9 181.83 346C180.49 342.98 177.61 338.53 175.44 336.13C173.27 333.73 168.57 330.03 165 327.91C161.43 325.79 155.35 322.99 151.5 321.67C147.65 320.36 140.45 318.34 135.5 317.18C130.55 316.02 124.47 314.36 122 313.48C119.53 312.61 116.66 311.13 115.64 310.2C114.61 309.26 113.37 307.49 112.89 306.25C112.35 304.88 112.39 303.02 113 301.5C113.55 300.13 115.35 298.32 117 297.5C118.65 296.68 122.25 295.55 125 295C128.78 294.24 131.76 294.36 137.25 295.5C142.89 296.66 146.01 298.05 151.28 301.75C157.52 306.13 158.19 306.38 159.78 304.92C160.72 304.05 165.44 300.11 170.25 296.17C175.06 292.23 179 288.32 179 287.5C179 286.68 176.41 283.37 173.25 280.16C169.34 276.19 165.1 273.18 160 270.74C155.88 268.76 149.01 266.44 144.75 265.57C140.49 264.71 133.51 264.05 129.25 264.12C124.99 264.18 119.14 264.63 116.25 265.12ZM271.22 283.25L271.5 298.5L310 299L310 396L345 396C345 353.76 345.34 331.94 345.75 320.25L346.5 298.99L384 299C383.25 295.51 383.02 288.54 383.01 281.25L383 268L270.95 268L271.22 283.25Z" />
</svg>