<svg xmlns="http://www.w3.org/2000/svg" width="435" height="450" style=""><rect id="backgroundrect" width="100%" height="100%" x="0" y="0" fill="none" stroke="none"/>
	<style>
		tspan { white-space:pre }
		.shp0 { fill: #231f20 } 
	</style>
	
<g class="currentLayer" style=""><title>Layer 1</title><path id="Path 0" class="shp0" d="M0.01700099380227549,0.09946948871507155 C-0.0008349146363562101,0.1536632105093747 -0.00563688998521794,1.519482199021474 0.007397043104550695,3.1350039056744095 C0.02660494449999985,5.627229111733907 0.047184838852266875,6.131436523364441 0.14459633878632835,6.466202804827978 C0.2077080147999473,6.682977692005187 0.3565692506146761,7.053415790345987 0.47593263785782197,7.289398578918645 C0.5946100286225612,7.525381367491304 0.8498007185906681,7.87455357500143 1.0418797325451568,8.06594659247751 C1.2469926795894146,8.270373543043359 1.6037108483620361,8.518704268227376 1.9055492988619491,8.668251500520514 C2.2190496894948106,8.823972701119333 2.634763555410597,8.961857993279516 2.9688438403957282,9.021539686901093 C3.2706822908956408,9.075733408695395 3.76459975535004,9.120323179791972 4.066438205849951,9.12100917627038 C4.368276656349863,9.121695172748792 4.831324279275865,9.075733408695395 5.095432923463287,9.019481697465865 C5.359541567650709,8.963229986236337 5.776627426523316,8.821914711684105 6.021528169315289,8.704609313876185 C6.282892827589075,8.580443951284176 6.632065035099201,8.332113226100157 6.864617841279813,8.105734388225224 C7.0861947038058855,7.889645497526425 7.366081266996712,7.520579392142443 7.497106594372809,7.272248666958424 C7.62607393231368,7.027347924166451 7.778365150520456,6.610262065293844 7.8359888547068,6.346153421106422 C7.919680425072686,5.95925140728381 7.940260319424953,5.294520819705593 7.940946315903361,2.9333209410221954 L7.94231830886018,0.0006859958241918207 L5.575630458349508,-6.542171249179773e-10 C5.496054866854079,2.260358395703075 5.472730986588177,3.54865978215497 5.473416983066585,4.322463809800197 C5.474102979544995,5.685538812398661 5.469301004196131,5.739046537714556 5.303289856421181,6.071754829742865 C5.209308338879161,6.260403861305312 5.030949254492851,6.482666720309792 4.90815588485766,6.565672294197267 C4.78467651874406,6.648677868084743 4.529485828775953,6.749519350410848 4.340836797213508,6.790679139115381 C4.0849601107669935,6.845558857388095 3.892881096812502,6.8435008679528675 3.58624067096373,6.781075188417658 C3.254904371892235,6.7131615370551785 3.1204490621240923,6.642503899779063 2.8968142101627947,6.418869047817765 C2.7067931856435328,6.2288480232985 2.5922317737492486,6.036769009344015 2.5366660589981276,5.814506150339534 C2.4797283512901913,5.588813308943006 2.4543464815890603,4.646940144087601 2.4543464815890603,2.7446719094597514 L2.4543464815890603,0.0006859958241918207 C0.26670371194311127,0.0006859958241918207 0.04375485646022215,0.01852190426282263 0.01700099380227549,0.09946948871507155 zM15.935549275280565,2.652062384874551 C15.903307440795349,2.678130251054089 15.882041549964672,3.449876289264089 15.88821551827035,4.368425573853593 L15.8998774584033,6.037455005822421 C18.45178435808437,6.037455005822421 19.239308315297777,6.052546928347416 19.295560026527305,6.071754829742865 C19.385425565198872,6.101938674792857 19.396401508853412,5.8879077735292835 19.381309586328417,4.373913545680864 L19.364159674368196,2.6417724376984175 C16.751885084587144,2.6136465820836525 15.967105113287374,2.6259945186950127 15.935549275280565,2.652062384874551 zM3.1574928719581736,14.483443647992672 C2.9592398896980034,14.516371478956302 2.6196716328856042,14.606237017627866 2.4028967457083947,14.683068623209657 C2.186121858531185,14.759900228791452 1.8691914855062777,14.911505450519822 1.6997503553392834,15.019892894108427 C1.530309225172287,15.128280337697024 1.2751185352041796,15.343683231917424 1.1338032606519484,15.498032439559424 C0.9924879860997161,15.652381647201423 0.7914910179259129,15.940500168133159 0.6879055496861703,16.138753150393324 C0.5184644195191735,16.461857491723908 0.4992565181237256,16.568872942355696 0.49994251460213457,17.18489777996688 C0.5006285110805426,17.771424769006483 0.5253243843032623,17.920286004821214 0.6680116518123107,18.21389249758022 C0.7599351799191042,18.402541529142663 1.0219858346713,18.742795782433472 1.2504226619814593,18.97054661326522 C1.4912074259029797,19.210645380708332 1.8671334960710508,19.489845947420754 2.1456480663050606,19.635277200843436 C2.4365105731504295,19.787568419050206 3.0449894494991145,19.998169337921734 3.689140142725062,20.169668457523958 C4.2742951388078465,20.32538965812278 4.845044208844042,20.506492728422728 4.9582336277815084,20.572348390349983 C5.0714230467189765,20.637518055798825 5.194902412832576,20.772659362045378 5.232632219145064,20.872128851414665 C5.281337969112098,21.001096189355533 5.276535993763233,21.10330966463846 5.215482307184843,21.228161023708882 C5.16677655721781,21.32763051307817 4.9884174728315,21.470317780587216 4.803884420139509,21.55606734038833 C4.5390897794736755,21.680232702980334 4.362102688044184,21.7083585585951 3.860639262327286,21.70424257972465 C3.397591639401284,21.700126600854198 3.1485749177388573,21.661710798063293 2.865944368634394,21.550579368561053 C2.6580874356765003,21.4689457876304 2.3377270802595493,21.28647072437363 2.15250803108915,21.145841446299812 C1.9679749783971578,21.00452617174758 1.7786399503563048,20.858408921846486 1.731992189824501,20.820679115534 C1.6702525067676994,20.771287369088554 1.4466176548064027,20.913288640119198 0.9225163453020098,21.335176474340667 C0.5246383878248544,21.65622282623602 0.19673207114540509,21.956689283779124 0.19467408171017822,22.00402304078933 C0.19261609227495138,22.051356797799542 0.3682311907476272,22.276363642717666 0.5850060779248364,22.504114473549414 C0.8257908418463575,22.757247174082295 1.153011162047397,23.008321885179946 1.4253517639757263,23.148951163253766 C1.6709385032461086,23.275860511759415 2.0873383656403055,23.448045627840045 2.3514470098277274,23.531737198205928 C2.7129671539492115,23.646298610100214 3.0600813720241105,23.692260374153616 3.7577397905659513,23.716270250897917 C4.448538244323703,23.74096612412064 4.81486036379405,23.72107222624678 5.198332395224622,23.639438645316126 C5.481648940807492,23.57907095521614 5.936464605992585,23.421977761660507 6.210177200877732,23.290266437806004 C6.483889795762879,23.157869117473084 6.8543278941036805,22.915026364116336 7.033372974968399,22.74970121281979 C7.212418055833121,22.58437606152325 7.450458833841008,22.283223607501746 7.562276259821655,22.080854646371126 C7.7378913582943305,21.76323827686781 7.770133192779548,21.62260899879399 7.795515062480678,21.060777882977106 C7.821582928660215,20.479738865764777 7.80649100613522,20.367921439784126 7.656257777363672,20.031783165363777 C7.564334249256882,19.824612228884288 7.366767263475122,19.51934379599233 7.217906027660392,19.354704641174198 C7.069044791845663,19.190065486356065 6.746626446993485,18.93624678934478 6.501725704201512,18.790815535922096 C6.2568249614095395,18.645384282499407 5.839739102536933,18.45330526854492 5.575630458349508,18.362753733394946 C5.311521814162088,18.272888194723386 4.817604349707686,18.134316906084784 4.4780360928952865,18.054741314589354 C4.138467836082885,17.97516572309392 3.7213819772102807,17.86129030767805 3.5519408470432845,17.800922617578063 C3.382499716876289,17.741240923956493 3.185618727572937,17.639713445151976 3.1156470867752306,17.57591577265995 C3.0449894494991145,17.51143210368951 2.9599258861764124,17.390010727011138 2.9269980552127866,17.30494716368844 C2.8899542453787053,17.21096564614642 2.892698231292341,17.083370301162365 2.934544016475283,16.979098836444216 C2.9722738227877725,16.885117318902196 3.095753188901372,16.760951956310183 3.208942607838841,16.704700245080662 C3.3221320267763073,16.64844853385113 3.569090759003508,16.570930931790926 3.7577397905659513,16.533201125478435 C4.017046459404512,16.48106539311936 4.22147340997036,16.48929735086027 4.598085476616841,16.567500949398884 C4.984987490439453,16.647076540894314 5.199018391703028,16.742430051393146 5.560538535824515,16.99624874840444 C5.988600338351663,17.296715205947528 6.034562102405058,17.313865117907753 6.1436355424720706,17.21370963206006 C6.208119211442506,17.15402793843848 6.531909549251502,16.88374532594538 6.861873855366179,16.613462713452282 C7.191838161480854,16.343180100959174 7.4621207739739575,16.074955477901295 7.4621207739739575,16.018703766671774 C7.4621207739739575,15.962452055442238 7.284447686066054,15.735387221088896 7.067672798888845,15.515182351519645 C6.799448175830969,15.242841749591314 6.508585668985599,15.036356809590238 6.158727464997067,14.86897366885847 C5.876096915892603,14.733146366133507 5.404817335225696,14.573995183142646 5.112582835423508,14.514313489521069 C4.820348335621322,14.455317792377905 4.341522793691915,14.410042024802923 4.049288293889729,14.414844000151781 C3.7570537940875424,14.418959979022237 3.355745854218342,14.449829820550637 3.1574928719581736,14.483443647992672 zM13.78838029786074,15.727155263347992 L13.807588199256188,16.773299892921546 L16.44867464113041,16.80759971684199 L16.44867464113041,23.46176555740822 L18.849662315561527,23.46176555740822 C18.849662315561527,20.564116432609065 18.87298619582743,19.067272116720876 18.901112051442194,18.26534223346088 L18.95256178732286,16.806913720363582 L21.5250485813562,16.80759971684199 C21.473598845475536,16.568186945877287 21.457820926472127,16.090047400426293 21.457134929993714,15.589955967666214 L21.45644893351531,14.681010633774438 L13.769858392943696,14.681010633774438 L13.78838029786074,15.727155263347992 z"/></g></svg>